<?xml version="1.0" encoding="utf-8"?>
<!-- Generator: Adobe Illustrator 16.0.0, SVG Export Plug-In . SVG Version: 6.00 Build 0)  -->
<!DOCTYPE svg PUBLIC "-//W3C//DTD SVG 1.1//EN" "http://www.w3.org/Graphics/SVG/1.1/DTD/svg11.dtd">
<svg version="1.1" id="Layer_1" xmlns="http://www.w3.org/2000/svg" xmlns:xlink="http://www.w3.org/1999/xlink" x="0px" y="0px"
	 width="75px" height="75px" viewBox="0 0 75 75" enable-background="new 0 0 75 75" xml:space="preserve">
<g id="Layer_20">
	<g>
		<path fill="#044A75" d="M-2.352,74.527c0-24.477,0-48.952,0-73.428C-1.486-0.336-0.336-1.487,1.1-2.353
			c24.372,0,48.743,0,73.114,0c1.784,0.727,3.037,1.983,3.766,3.765c0,24.372,0,48.743,0,73.115
			c-1.532,2.93-4.041,3.512-7.166,3.498c-21.999-0.095-44-0.095-65.999,0C1.689,78.039-0.819,77.457-2.352,74.527z M18.132,29.933
			c0.683-2.223-0.512-2.248-1.856-2.138c-0.519,0.042-1.053,0.066-1.565-0.005c-1.121-0.157-1.394,0.303-1.38,1.387
			c0.059,4.65,0.025,9.301,0.025,13.951c0,3.484,0,3.442,3.521,3.465c1.07,0.007,1.443-0.256,1.42-1.381
			c-0.071-3.447-0.031-6.896-0.02-10.345c0.002-0.506-0.085-1.015,0.265-1.499c0.904-1.249,2.756-1.968,4.163-1.543
			c1.599,0.483,1.722,1.822,1.743,3.149c0.042,2.664,0.02,5.329,0.021,7.994c0.001,3.7,0,3.656,3.691,3.629
			c1.01-0.008,1.208-0.341,1.195-1.261c-0.049-3.396-0.021-6.792-0.019-10.188c0.001-1.941,1.577-3.476,3.552-3.466
			c1.778,0.01,2.684,1.074,2.708,3.283c0.028,2.665,0.007,5.33,0.007,7.994c0,3.794-0.001,3.764,3.81,3.632
			c0.84-0.028,1.061-0.298,1.053-1.088c-0.042-4.18,0.061-8.363-0.086-12.538c-0.139-3.944-2.746-5.881-6.658-5.27
			c-2.022,0.316-3.466,1.534-4.801,2.974C26.665,26.869,23.095,26.558,18.132,29.933z M55.938,38.688c1.934,0,3.867-0.002,5.8,0.002
			c0.588,0.001,1.144,0.066,1.145-0.835c0.004-3.231-0.84-6.102-3.438-8.218c-3.804-3.098-9.716-2.625-12.911,0.994
			c-3.388,3.838-3.189,9.902,0.437,13.351c3.56,3.385,10.688,3.498,13.977,0.223c0.247-0.246,0.66-0.46,0.301-0.886
			c-0.639-0.758-1.197-1.653-1.994-2.185c-0.577-0.386-1.076,0.583-1.701,0.771c-0.497,0.149-0.963,0.409-1.465,0.537
			c-2.82,0.723-5.382-0.207-6.563-2.338c-0.5-0.902-0.685-1.507,0.773-1.438C52.173,38.757,54.057,38.689,55.938,38.688z"/>
		<path fill-rule="evenodd" clip-rule="evenodd" fill="#F8FAFB" d="M-2.352,74.527c1.532,2.93,4.041,3.512,7.167,3.498
			c21.999-0.095,44-0.095,65.999,0c3.125,0.014,5.634-0.568,7.166-3.498c0,1.253,0.488,2.986-0.139,3.622
			c-0.616,0.627-2.362,0.143-3.613,0.143c-25.059,0.001-50.118-0.01-75.176,0.032c-1.191,0.002-1.574-0.283-1.422-1.45
			C-2.271,76.104-2.352,75.31-2.352,74.527z"/>
		<path fill-rule="evenodd" clip-rule="evenodd" fill="#F8FAFB" d="M77.979,1.413c-0.729-1.782-1.981-3.039-3.766-3.765
			c1.256,0.025,2.922-0.415,3.64,0.219C78.464-1.594,77.979,0.184,77.979,1.413z"/>
		<path fill-rule="evenodd" clip-rule="evenodd" fill="#F8FAFB" d="M1.1-2.353c-1.436,0.865-2.586,2.016-3.452,3.452
			c0-1.151-0.449-2.75,0.126-3.326C-1.65-2.802-0.05-2.353,1.1-2.353z"/>
		<path fill-rule="evenodd" clip-rule="evenodd" fill="#F8FAFB" d="M18.132,29.933c4.963-3.375,8.532-3.064,10.789,0.737
			c1.335-1.44,2.778-2.657,4.801-2.974c3.913-0.612,6.52,1.325,6.658,5.27c0.146,4.175,0.044,8.358,0.086,12.538
			c0.008,0.79-0.213,1.06-1.053,1.088c-3.811,0.132-3.81,0.162-3.81-3.632c0-2.664,0.021-5.33-0.007-7.994
			c-0.023-2.209-0.93-3.273-2.708-3.283c-1.976-0.01-3.551,1.525-3.552,3.466c-0.002,3.396-0.03,6.793,0.019,10.188
			c0.013,0.92-0.185,1.253-1.195,1.261c-3.691,0.027-3.69,0.071-3.691-3.629c-0.001-2.665,0.021-5.33-0.021-7.994
			c-0.021-1.327-0.144-2.667-1.743-3.149c-1.406-0.425-3.258,0.294-4.163,1.543c-0.351,0.484-0.263,0.993-0.265,1.499
			c-0.011,3.449-0.051,6.898,0.02,10.345c0.023,1.125-0.35,1.388-1.42,1.381c-3.521-0.022-3.521,0.02-3.521-3.465
			c0-4.65,0.034-9.301-0.025-13.951c-0.014-1.084,0.259-1.544,1.38-1.387c0.513,0.071,1.046,0.047,1.565,0.005
			C17.621,27.686,18.815,27.71,18.132,29.933z"/>
		<path fill-rule="evenodd" clip-rule="evenodd" fill="#F8FAFB" d="M55.938,38.688c-1.881,0.001-3.765,0.068-5.642-0.021
			c-1.458-0.069-1.273,0.535-0.773,1.438c1.182,2.131,3.743,3.061,6.563,2.338c0.502-0.128,0.968-0.388,1.465-0.537
			c0.625-0.188,1.124-1.157,1.701-0.771c0.797,0.531,1.355,1.427,1.994,2.185c0.359,0.426-0.054,0.64-0.301,0.886
			c-3.289,3.275-10.417,3.162-13.977-0.223c-3.626-3.448-3.824-9.513-0.437-13.351c3.195-3.619,9.107-4.091,12.911-0.994
			c2.599,2.116,3.442,4.987,3.438,8.218c-0.001,0.901-0.557,0.836-1.145,0.835C59.805,38.687,57.871,38.688,55.938,38.688z
			 M53.507,35.581c1.305,0,2.611-0.042,3.913,0.015c0.895,0.039,0.921-0.386,0.748-1.054c-0.503-1.951-2.424-3.343-4.6-3.318
			c-2.073,0.024-3.928,1.437-4.428,3.337c-0.185,0.701-0.1,1.075,0.766,1.034C51.104,35.539,52.307,35.581,53.507,35.581z"/>
		<path fill-rule="evenodd" clip-rule="evenodd" fill="#0B4F79" d="M53.507,35.581c-1.2,0-2.403-0.042-3.601,0.015
			c-0.865,0.041-0.95-0.333-0.766-1.034c0.5-1.901,2.354-3.313,4.428-3.337c2.176-0.025,4.097,1.367,4.6,3.318
			c0.173,0.668,0.146,1.092-0.748,1.054C56.118,35.539,54.812,35.581,53.507,35.581z"/>
	</g>
</g>
</svg>
