<?xml version="1.0" encoding="utf-8"?>
<!-- Generator: Adobe Illustrator 16.0.0, SVG Export Plug-In . SVG Version: 6.00 Build 0)  -->
<!DOCTYPE svg PUBLIC "-//W3C//DTD SVG 1.1//EN" "http://www.w3.org/Graphics/SVG/1.1/DTD/svg11.dtd">
<svg version="1.1" id="Layer_1" xmlns="http://www.w3.org/2000/svg" xmlns:xlink="http://www.w3.org/1999/xlink" x="0px" y="0px"
	 width="360px" height="360px" viewBox="0 0 360 360" enable-background="new 0 0 360 360" xml:space="preserve">
<g>
	<g>
		<defs>
			<rect id="SVGID_1_" x="10.886" y="54" width="337.988" height="254"/>
		</defs>
		<clipPath id="SVGID_2_">
			<use xlink:href="#SVGID_1_"  overflow="visible"/>
		</clipPath>
		<path clip-path="url(#SVGID_2_)" fill="#657D8D" d="M220.767,57.406l-11.399-3.129c-1.478-0.485-2.922-0.331-4.321,0.463
			c-1.411,0.792-2.37,1.995-2.855,3.595l-68.614,237.471c-0.486,1.591-0.333,3.101,0.463,4.512c0.792,1.411,1.983,2.359,3.58,2.845
			l11.412,3.131c1.466,0.496,2.909,0.342,4.32-0.463c1.411-0.794,2.359-1.984,2.857-3.586l68.604-237.473
			c0.496-1.6,0.342-3.098-0.452-4.509C223.556,58.852,222.365,57.892,220.767,57.406L220.767,57.406z M220.767,57.406"/>
	</g>
	<path fill="#657D8D" d="M117.944,103.765c0-1.586-0.607-2.997-1.842-4.233l-9.196-9.196c-1.222-1.222-2.633-1.839-4.233-1.839
		c-1.586,0-2.997,0.617-4.233,1.839L12.725,176.05c-1.222,1.236-1.839,2.646-1.839,4.233c0,1.602,0.617,3.013,1.839,4.233
		l85.714,85.717c1.236,1.232,2.636,1.841,4.233,1.841c1.6,0,3.011-0.608,4.233-1.841l9.196-9.184
		c1.235-1.237,1.842-2.648,1.842-4.232c0-1.602-0.607-3.013-1.842-4.233l-72.287-72.301l72.287-72.285
		C117.336,106.776,117.944,105.365,117.944,103.765L117.944,103.765z M117.944,103.765"/>
	<path fill="#657D8D" d="M345.672,176.05l-85.726-85.714c-1.224-1.222-2.635-1.839-4.222-1.839c-1.596,0-3.01,0.617-4.233,1.839
		l-9.194,9.196c-1.234,1.224-1.841,2.635-1.841,4.233c0,1.6,0.606,3.011,1.841,4.233l72.286,72.285l-72.286,72.301
		c-1.234,1.221-1.841,2.632-1.841,4.233c0,1.584,0.606,2.995,1.841,4.232l9.194,9.184c1.224,1.232,2.638,1.841,4.233,1.841
		c1.587,0,2.998-0.608,4.222-1.841l85.726-85.717c1.224-1.221,1.83-2.632,1.83-4.233
		C347.502,178.685,346.896,177.275,345.672,176.05L345.672,176.05z M345.672,176.05"/>
</g>
</svg>
