<?xml version="1.0" encoding="utf-8"?>
<!-- Generator: Adobe Illustrator 16.0.0, SVG Export Plug-In . SVG Version: 6.00 Build 0)  -->
<!DOCTYPE svg PUBLIC "-//W3C//DTD SVG 1.1//EN" "http://www.w3.org/Graphics/SVG/1.1/DTD/svg11.dtd">
<svg version="1.1" id="Layer_1" xmlns="http://www.w3.org/2000/svg" xmlns:xlink="http://www.w3.org/1999/xlink" x="0px" y="0px"
	 width="66px" height="47px" viewBox="0 0 66 47" enable-background="new 0 0 66 47" xml:space="preserve">
<path fill="#2A3D49" d="M66,7.897c0,2.761-2.238,5-5,5H5c-2.761,0-5-2.239-5-5V5c0-2.761,2.239-5,5-5h56c2.762,0,5,2.239,5,5V7.897z
	"/>
<path fill="#2A3D49" d="M66,42c0,2.761-2.238,5-5,5H5c-2.761,0-5-2.239-5-5v-2.898c0-2.761,2.239-5,5-5h56c2.762,0,5,2.239,5,5V42z"
	/>
<path fill="#2A3D49" d="M66,24.949c0,2.761-2.238,5-5,5H5c-2.761,0-5-2.239-5-5v-2.898c0-2.761,2.239-5,5-5h56c2.762,0,5,2.239,5,5
	V24.949z"/>
<g>
</g>
<g>
</g>
<g>
</g>
<g>
</g>
<g>
</g>
<g>
</g>
</svg>
