<?xml version="1.0" encoding="utf-8"?>
<!-- Generator: Adobe Illustrator 16.0.0, SVG Export Plug-In . SVG Version: 6.00 Build 0)  -->
<!DOCTYPE svg PUBLIC "-//W3C//DTD SVG 1.1//EN" "http://www.w3.org/Graphics/SVG/1.1/DTD/svg11.dtd">
<svg version="1.1" xmlns="http://www.w3.org/2000/svg" xmlns:xlink="http://www.w3.org/1999/xlink" x="0px" y="0px" width="75px"
	 height="75px" viewBox="0 0 75 75" enable-background="new 0 0 75 75" xml:space="preserve">
<g id="Layer_1" display="none">
	<g display="inline">
		<rect y="0" fill="#CC2A20" width="75" height="75"/>
		<path fill="#FFFFFF" d="M32.277,7.327h-3.416l-2.304,8.859L24.16,7.327h-3.556c0.711,2.089,1.454,4.192,2.166,6.285
			c1.083,3.146,1.76,5.517,2.065,7.137v9.137h3.379v-9.137L32.277,7.327z M41.306,24.443v-5.889c0-1.796-0.308-3.108-0.946-3.96
			c-0.844-1.147-2.027-1.723-3.553-1.723c-1.517,0-2.706,0.576-3.547,1.723c-0.649,0.852-0.955,2.164-0.955,3.96v5.889
			c0,1.787,0.305,3.111,0.955,3.955c0.841,1.146,2.03,1.721,3.547,1.721c1.526,0,2.709-0.575,3.553-1.721
			C40.999,27.554,41.306,26.23,41.306,24.443z M38.259,25.017c0,1.556-0.471,2.333-1.452,2.333c-0.984,0-1.455-0.778-1.455-2.333
			v-7.073c0-1.556,0.471-2.33,1.455-2.33c0.981,0,1.452,0.774,1.452,2.33V25.017z M52.573,29.886V13.075h-3.047v12.849
			c-0.678,0.954-1.317,1.426-1.926,1.426c-0.41,0-0.647-0.241-0.713-0.714c-0.038-0.099-0.038-0.47-0.038-1.186V13.075h-3.037
			v13.293c0,1.186,0.103,1.991,0.272,2.499c0.302,0.853,0.979,1.252,1.961,1.252c1.109,0,2.267-0.676,3.48-2.068v1.834H52.573z"/>
		<path fill="#FFFFFF" d="M62.44,50.289c0,3.891-0.003,8.014-0.874,11.791c-0.609,2.65-2.779,4.609-5.392,4.902
			c-6.185,0.689-12.447,0.693-18.678,0.689c-6.233,0.004-12.493,0-18.678-0.689c-2.613-0.293-4.783-2.252-5.391-4.902
			c-0.868-3.777-0.868-7.9-0.868-11.791c0-3.893,0.009-8.01,0.879-11.792c0.608-2.65,2.777-4.607,5.39-4.898
			c6.186-0.693,12.446-0.694,18.679-0.693c6.23-0.001,12.492,0,18.678,0.693c2.613,0.291,4.783,2.248,5.392,4.898
			C62.444,42.279,62.44,46.396,62.44,50.289z"/>
		<path fill="#CC2A20" d="M26.787,41.898v-3.145H16.275v3.145h3.547v19.184h3.352V41.898H26.787z M32.877,61.082v-1.814
			c-1.196,1.373-2.334,2.043-3.443,2.043c-0.972,0-1.641-0.395-1.942-1.238c-0.166-0.506-0.266-1.297-0.266-2.473V44.445h3.013
			v12.246c0,0.707,0,1.076,0.028,1.172c0.073,0.469,0.301,0.707,0.705,0.707c0.604,0,1.24-0.469,1.906-1.41V44.445h3.019v16.637
			H32.877z M44.333,56.326c0,1.504-0.442,2.244-1.312,2.244c-0.496,0-0.999-0.238-1.503-0.74V47.689
			c0.504-0.496,1.007-0.734,1.503-0.734c0.869,0,1.312,0.77,1.312,2.271V56.326z M47.346,56.089v-6.627
			c0-1.572-0.104-2.674-0.304-3.346c-0.402-1.244-1.209-1.875-2.41-1.875c-1.107,0-2.141,0.607-3.114,1.803v-7.292h-3.014v22.329
			h3.014v-1.613c1.007,1.244,2.041,1.842,3.114,1.842c1.201,0,2.008-0.633,2.41-1.869C47.243,58.736,47.346,57.626,47.346,56.089z
			 M55.708,50.802h-3.013v-1.537c0-1.541,0.505-2.311,1.513-2.311c0.996,0,1.5,0.77,1.5,2.311V50.802z M58.725,55.757V55.32h-3.078
			c0,1.209-0.036,1.875-0.064,2.039c-0.174,0.807-0.607,1.211-1.348,1.211c-1.034,0-1.539-0.768-1.539-2.311v-2.945h6.029v-3.447
			c0-1.777-0.304-3.078-0.936-3.92c-0.844-1.141-2.043-1.705-3.555-1.705c-1.539,0-2.742,0.564-3.61,1.705
			c-0.642,0.842-0.932,2.143-0.932,3.92v5.828c0,1.764,0.327,3.08,0.968,3.91c0.87,1.137,2.069,1.705,3.649,1.705
			c1.574,0,2.81-0.598,3.646-1.805c0.365-0.531,0.601-1.139,0.703-1.805C58.686,57.398,58.725,56.726,58.725,55.757z"/>
	</g>
</g>
<g id="Layer_2" display="none">
	<g display="inline">
		<rect x="0" fill="#3D5193" width="75" height="75"/>
		<path fill="#FFFFFF" d="M65.408,44.896l1.48-11.479H55.521v-7.33c0-3.324,0.926-5.589,5.691-5.589l6.074-0.003V10.228
			c-1.049-0.14-4.654-0.453-8.855-0.453c-8.766,0-14.764,5.351-14.764,15.176v8.465h-9.913v11.479h9.913v29.455h11.854V44.896
			H65.408z"/>
	</g>
</g>
<g id="Layer_3" display="none">
	<g display="inline">
		<rect x="0" fill="#38A8E0" width="75" height="75"/>
		<path fill="#FFFFFF" d="M62.498,21.993c-1.838,0.816-3.818,1.368-5.891,1.615c2.117-1.27,3.746-3.279,4.51-5.674
			c-1.98,1.175-4.174,2.03-6.512,2.49c-1.873-1.995-4.539-3.24-7.488-3.24c-5.666,0-10.259,4.594-10.259,10.258
			c0,0.806,0.091,1.586,0.265,2.336c-8.524-0.425-16.081-4.509-21.143-10.718c-0.882,1.517-1.388,3.278-1.388,5.159
			c0,3.557,1.81,6.699,4.562,8.537c-1.681-0.052-3.262-0.516-4.646-1.283v0.129c0,4.969,3.537,9.116,8.228,10.059
			c-0.859,0.233-1.769,0.362-2.702,0.362c-0.66,0-1.305-0.066-1.93-0.187c1.305,4.075,5.093,7.04,9.581,7.125
			c-3.509,2.751-7.932,4.392-12.74,4.392c-0.827,0-1.643-0.051-2.445-0.145c4.539,2.908,9.932,4.607,15.727,4.607
			c18.867,0,29.186-15.628,29.186-29.186c0-0.443-0.012-0.885-0.029-1.329C59.382,25.857,61.119,24.051,62.498,21.993z"/>
	</g>
</g>
<g id="Layer_4" display="none">
	<g display="inline">
		<rect fill="#CC2D26" width="75" height="75"/>
		<path fill="#FFFFFF" d="M36.306,11.754c0.47,0.291,0.996,0.715,1.582,1.274c0.563,0.583,1.113,1.303,1.651,2.151
			c0.517,0.802,0.976,1.748,1.376,2.843c0.329,1.091,0.492,2.368,0.492,3.826c-0.043,2.671-0.634,4.809-1.771,6.413
			c-0.556,0.778-1.145,1.494-1.768,2.15c-0.691,0.654-1.424,1.324-2.201,2.004c-0.447,0.461-0.857,0.984-1.235,1.568
			c-0.444,0.607-0.667,1.31-0.667,2.112c0,0.781,0.229,1.423,0.685,1.932c0.387,0.487,0.765,0.913,1.13,1.277l2.535,2.076
			c1.574,1.292,2.954,2.707,4.143,4.263c1.117,1.58,1.698,3.645,1.749,6.194c0,3.619-1.602,6.824-4.797,9.621
			c-3.312,2.893-8.097,4.386-14.348,4.482c-5.233-0.048-9.14-1.164-11.721-3.343c-2.602-2.039-3.906-4.477-3.906-7.312
			c0-1.38,0.422-2.924,1.273-4.62c0.82-1.697,2.309-3.188,4.465-4.473c2.417-1.38,4.958-2.304,7.623-2.764
			c2.638-0.387,4.826-0.606,6.57-0.655c-0.539-0.71-1.019-1.466-1.44-2.272c-0.492-0.781-0.736-1.723-0.736-2.819
			c0-0.659,0.093-1.212,0.279-1.649c0.164-0.467,0.318-0.891,0.457-1.283c-0.847,0.096-1.649,0.146-2.398,0.146
			c-3.979-0.05-7.009-1.301-9.095-3.753c-2.185-2.286-3.277-4.945-3.277-7.98c0-3.671,1.545-6.996,4.641-9.985
			c2.123-1.748,4.33-2.888,6.619-3.425C26.48,9.29,28.605,9.06,30.585,9.06h14.939l-4.615,2.694H36.306z M39.19,54.756
			c0-1.897-0.619-3.548-1.854-4.957c-1.31-1.335-3.354-2.976-6.138-4.921c-0.477-0.049-1.035-0.072-1.677-0.072
			c-0.38-0.047-1.356,0-2.926,0.146c-1.545,0.22-3.128,0.569-4.747,1.058c-0.381,0.146-0.915,0.365-1.603,0.657
			c-0.691,0.314-1.392,0.766-2.107,1.349c-0.691,0.606-1.273,1.358-1.748,2.259c-0.549,0.948-0.819,2.091-0.819,3.427
			c0,2.624,1.186,4.787,3.564,6.486c2.262,1.7,5.352,2.575,9.277,2.626c3.521-0.051,6.21-0.828,8.063-2.335
			C38.286,58.996,39.19,57.088,39.19,54.756z M28.775,32.858c1.967-0.074,3.605-0.781,4.916-2.121c0.634-0.949,1.04-1.922,1.22-2.92
			c0.108-1,0.165-1.837,0.165-2.52c0-2.944-0.754-5.916-2.261-8.908c-0.708-1.435-1.638-2.604-2.79-3.504
			c-1.179-0.85-2.532-1.302-4.062-1.35c-2.025,0.048-3.707,0.865-5.05,2.446c-1.132,1.656-1.673,3.505-1.622,5.551
			c0,2.701,0.788,5.509,2.37,8.433c0.768,1.362,1.752,2.518,2.965,3.467C25.835,32.384,27.218,32.858,28.775,32.858z"/>
		<polygon fill="#FFFFFF" points="65.763,17.219 57.926,17.219 57.926,9.378 54.127,9.378 54.127,17.219 46.291,17.219 
			46.291,21.017 54.127,21.017 54.127,28.854 57.926,28.854 57.926,21.017 65.763,21.017 		"/>
	</g>
</g>
<g id="Layer_5" display="none">
	<g display="inline">
		<rect x="0" y="0" fill="#EB7B1D" width="75" height="75"/>
		<circle fill="#FFFFFF" cx="15.023" cy="61.112" r="7.044"/>
		<path fill="#FFFFFF" d="M7.987,43.354c6.603,0,12.806,2.583,17.473,7.266c4.669,4.693,7.238,10.94,7.238,17.592h10.169
			c0-19.315-15.646-35.029-34.88-35.029V43.354z"/>
		<path fill="#FFFFFF" d="M8,25.324c23.523,0,42.665,19.245,42.665,42.896h10.167c0-29.262-23.698-53.067-52.832-53.067V25.324z"/>
	</g>
</g>
<g id="Layer_6" display="none">
	<g display="inline">
		<rect x="0" y="0" fill="#FFFFFF" width="75" height="75"/>
		<path d="M37.5,12.084c-14.388,0-26.053,11.664-26.053,26.056c0,11.499,7.462,21.277,17.817,24.72
			c1.304,0.238,1.779-0.568,1.779-1.245c0-0.623-0.02-2.271-0.036-4.45c-7.247,1.575-8.774-3.497-8.774-3.497
			c-1.186-3.003-2.895-3.809-2.895-3.809c-2.364-1.611,0.181-1.574,0.181-1.574c2.616,0.183,3.991,2.673,3.991,2.673
			c2.322,3.992,6.097,2.838,7.583,2.18c0.234-1.686,0.907-2.839,1.651-3.498c-5.786-0.641-11.867-2.893-11.867-12.854
			c0-2.856,1.017-5.164,2.68-6.995c-0.266-0.659-1.16-3.313,0.257-6.885c0,0,2.185-0.714,7.164,2.655
			c2.078-0.567,4.31-0.86,6.522-0.879c2.213,0.019,4.441,0.312,6.52,0.879c4.979-3.369,7.164-2.655,7.164-2.655
			c1.418,3.571,0.523,6.226,0.256,6.885c1.666,1.831,2.678,4.139,2.678,6.995c0,9.997-6.094,12.194-11.896,12.854
			c0.934,0.806,1.77,2.381,1.77,4.816c0,3.479-0.033,6.299-0.033,7.159c0,0.695,0.473,1.501,1.793,1.245
			c10.344-3.461,17.801-13.221,17.801-24.72C63.552,23.749,51.892,12.084,37.5,12.084"/>
	</g>
</g>
<g id="Layer_7" display="none">
	<g display="inline">
		<rect y="0" fill="#F0F0F1" width="75" height="75"/>
		<g>
			<path fill="#3A5FA9" d="M35.721,37.434c0,5.438-4.411,9.853-9.849,9.853c-5.443,0-9.856-4.414-9.856-9.853
				c0-5.441,4.413-9.854,9.856-9.854C31.31,27.581,35.721,31.993,35.721,37.434z"/>
			<path fill="#E60E79" d="M58.984,37.434c0,5.438-4.41,9.853-9.852,9.853c-5.439,0-9.854-4.414-9.854-9.853
				c0-5.441,4.414-9.854,9.854-9.854C54.574,27.581,58.984,31.993,58.984,37.434z"/>
		</g>
	</g>
</g>
<g id="Layer_8" display="none">
	<g display="inline">
		<rect y="0" fill="#C9161A" width="75" height="75"/>
		<path fill="#FFFFFF" d="M37.5,10.373c-14.979,0-27.127,12.144-27.127,27.127c0,11.107,6.679,20.65,16.239,24.846
			c-0.077-1.896-0.014-4.171,0.471-6.229c0.523-2.205,3.491-14.785,3.491-14.785s-0.868-1.729-0.868-4.289
			c0-4.018,2.333-7.021,5.235-7.021c2.466,0,3.659,1.852,3.659,4.07c0,2.479-1.583,6.189-2.396,9.626
			c-0.681,2.877,1.444,5.224,4.276,5.224c5.142,0,8.604-6.598,8.604-14.421c0-5.943-4.004-10.393-11.287-10.393
			c-8.228,0-13.354,6.134-13.354,12.987c0,2.365,0.698,4.031,1.789,5.322c0.502,0.593,0.572,0.83,0.387,1.51
			c-0.125,0.503-0.425,1.701-0.551,2.177c-0.182,0.69-0.736,0.935-1.357,0.681c-3.791-1.545-5.556-5.697-5.556-10.362
			c0-7.705,6.497-16.946,19.389-16.946c10.354,0,17.173,7.494,17.173,15.54c0,10.642-5.919,18.59-14.639,18.59
			c-2.931,0-5.685-1.584-6.626-3.379c0,0-1.577,6.249-1.908,7.456c-0.576,2.089-1.702,4.182-2.731,5.812
			c2.438,0.718,5.016,1.11,7.687,1.11c14.98,0,27.125-12.143,27.125-27.126S52.481,10.373,37.5,10.373z"/>
	</g>
	
		<image display="inline" overflow="visible" width="128" height="128" xlink:href="../../../../Downloads/1469331395_stackoverflow.png"  transform="matrix(0.5859 0 0 0.5859 -4.882812e-04 -4.882812e-04)">
	</image>
</g>
<g id="Layer_9">
	<g>
		<rect x="0" y="0" fill="#0077B5" width="75" height="75"/>
		<path fill="#FFFFFF" d="M12.833,28.953h10.582v33.995H12.833V28.953z M18.127,12.053c3.383,0,6.126,2.747,6.126,6.125
			c0,3.381-2.743,6.127-6.126,6.127c-3.395,0-6.133-2.747-6.133-6.127C11.994,14.8,14.732,12.053,18.127,12.053"/>
		<path fill="#FFFFFF" d="M30.048,28.953h10.134v4.646h0.144c1.409-2.674,4.861-5.491,10.005-5.491
			c10.696,0,12.676,7.038,12.676,16.193v18.646H52.444V46.419c0-3.945-0.078-9.017-5.495-9.017c-5.503,0-6.341,4.293-6.341,8.726
			v16.819h-10.56V28.953z"/>
	</g>
	<g>
	</g>
	<g>
	</g>
	<g>
	</g>
	<g>
	</g>
	<g>
	</g>
	<g>
	</g>
</g>
</svg>
