<?xml version="1.0" encoding="utf-8"?>
<!-- Generator: Adobe Illustrator 16.0.0, SVG Export Plug-In . SVG Version: 6.00 Build 0)  -->
<!DOCTYPE svg PUBLIC "-//W3C//DTD SVG 1.1//EN" "http://www.w3.org/Graphics/SVG/1.1/DTD/svg11.dtd">
<svg version="1.1" id="Layer_1" xmlns="http://www.w3.org/2000/svg" xmlns:xlink="http://www.w3.org/1999/xlink" x="0px" y="0px"
	 width="360px" height="360px" viewBox="0 0 360 360" enable-background="new 0 0 360 360" xml:space="preserve">
<g>
	<path fill="none" d="M182.801,184.256c-1.865-0.071-3.737-0.071-5.602,0v43.89c1.862,0.074,3.704,0.041,5.602,0.1V184.256z"/>
	<path fill="none" d="M221.199,270.201c0-6.969-7.208-13.895-18.398-18.07v36.138C213.992,284.091,221.199,277.166,221.199,270.201z
		"/>
	<path fill="none" d="M182.801,292.146v-43.89c-1.858-0.071-3.707-0.038-5.602-0.1v43.989
		C179.07,292.22,180.931,292.22,182.801,292.146z"/>
	<path fill="none" d="M170.454,62.74V50.441c0-5.264,4.283-9.546,9.546-9.546s9.547,4.283,9.547,9.546V62.74
		c9.738-3.849,16.402-13.334,16.402-24.126V24.493h-51.898v14.121C154.051,49.406,160.715,58.891,170.454,62.74z"/>
	<path fill="none" d="M156.333,88.229h47.333c1.259,0,2.283-1.026,2.283-2.287c0-1.261-1.024-2.287-2.283-2.287h-47.333
		c-1.258,0-2.282,1.026-2.282,2.287C154.051,87.203,155.075,88.229,156.333,88.229z"/>
	<path fill="none" d="M138.801,206.201c0,6.965,7.208,13.89,18.398,18.067v-36.138C146.009,192.306,138.801,199.232,138.801,206.201
		z"/>
	<path fill="none" d="M189.547,107.738v13.699c0,5.264-4.283,9.546-9.547,9.546s-9.546-4.283-9.546-9.546v-13.699
		c-26.282,2.292-50.679,14.008-69.081,33.268c-19.442,20.348-30.15,47.017-30.15,75.093v82.824
		c0,20.833,16.949,37.782,37.782,37.782h141.99c20.833,0,37.782-16.949,37.782-37.782v-82.824c0-28.076-10.707-54.745-30.149-75.093
		C240.225,121.746,215.828,110.03,189.547,107.738z M241.199,270.201c0,17.781-14.962,32.891-38.398,39.104v5.697
		c0,5.514-4.486,10-10,10s-10-4.486-10-10v-2.846c-1.888,0.06-3.715,0.06-5.602,0v2.846c0,5.514-4.486,10-10,10s-10-4.486-10-10
		v-5.696c-23.437-6.209-38.398-21.319-38.398-39.104c0-5.514,4.486-10,10-10s10,4.486,10,10c0,6.965,7.208,13.89,18.398,18.067
		v-42.963c-23.437-6.209-38.398-21.319-38.398-39.104c0-17.786,14.961-32.896,38.398-39.105V161.4c0-5.514,4.486-10,10-10
		s10,4.486,10,10v2.845c1.89-0.059,3.713-0.059,5.602,0V161.4c0-5.514,4.486-10,10-10s10,4.486,10,10v5.696
		c23.438,6.209,38.398,21.319,38.398,39.105c0,5.514-4.486,10-10,10s-10-4.486-10-10c0-6.969-7.208-13.895-18.398-18.07v42.965
		C226.238,237.305,241.199,252.416,241.199,270.201z"/>
	<path fill="#657D8D" d="M221.199,206.201c0,5.514,4.486,10,10,10s10-4.486,10-10c0-17.786-14.961-32.896-38.398-39.105V161.4
		c0-5.514-4.486-10-10-10s-10,4.486-10,10v2.845c-1.889-0.059-3.712-0.059-5.602,0V161.4c0-5.514-4.486-10-10-10s-10,4.486-10,10
		v5.696c-23.437,6.209-38.398,21.319-38.398,39.105c0,17.785,14.961,32.896,38.398,39.104v42.963
		c-11.191-4.178-18.398-11.103-18.398-18.067c0-5.514-4.486-10-10-10s-10,4.486-10,10c0,17.785,14.961,32.896,38.398,39.104v5.696
		c0,5.514,4.486,10,10,10s10-4.486,10-10v-2.846c1.887,0.06,3.714,0.06,5.602,0v2.846c0,5.514,4.486,10,10,10s10-4.486,10-10v-5.697
		c23.437-6.213,38.398-21.322,38.398-39.104c0-17.785-14.961-32.896-38.398-39.105v-42.965
		C213.991,192.307,221.199,199.232,221.199,206.201z M221.199,270.201c0,6.965-7.207,13.89-18.398,18.067v-36.138
		C213.991,256.307,221.199,263.232,221.199,270.201z M177.199,228.146v-43.89c1.865-0.071,3.736-0.071,5.602,0v43.989
		C180.903,228.187,179.061,228.22,177.199,228.146z M177.199,248.156c1.895,0.062,3.743,0.028,5.602,0.1v43.89
		c-1.87,0.074-3.73,0.074-5.602,0V248.156z M138.801,206.201c0-6.969,7.208-13.896,18.398-18.07v36.138
		C146.008,220.091,138.801,213.166,138.801,206.201z"/>
	<path fill="#657D8D" d="M282.321,139.49c-15.073-20.081-36.076-35.524-59.578-43.909c1.502-2.963,2.299-6.255,2.299-9.64
		c0-7.781-4.11-14.684-10.52-18.432c6.743-8.06,10.52-18.301,10.52-28.896V20.861c0-8.525-6.936-15.461-15.461-15.461h-59.162
		c-8.525,0-15.46,6.936-15.46,15.461v17.752c0,10.596,3.776,20.836,10.519,28.896c-6.409,3.749-10.519,10.651-10.519,18.432
		c0,3.385,0.797,6.677,2.299,9.64c-23.502,8.385-44.506,23.828-59.579,43.909c-16.714,22.268-25.549,48.759-25.549,76.609v82.824
		c0,31.361,25.514,56.875,56.875,56.875h141.99c31.361,0,56.875-25.514,56.875-56.875v-82.824
		C307.87,188.249,299.035,161.758,282.321,139.49z M154.051,24.493h51.898v14.121c0,10.792-6.664,20.277-16.402,24.126V50.441
		c0-5.264-4.283-9.546-9.547-9.546s-9.546,4.283-9.546,9.546V62.74c-9.738-3.849-16.402-13.334-16.402-24.126V24.493z
		 M156.333,83.655h47.333c1.259,0,2.283,1.026,2.283,2.287c0,1.261-1.024,2.287-2.283,2.287h-47.333
		c-1.258,0-2.282-1.026-2.282-2.287C154.051,84.681,155.075,83.655,156.333,83.655z M288.777,298.923
		c0,20.833-16.949,37.782-37.782,37.782h-141.99c-20.833,0-37.782-16.949-37.782-37.782v-82.824
		c0-28.076,10.708-54.745,30.15-75.093c18.402-19.26,42.799-30.976,69.081-33.268v13.699c0,5.264,4.283,9.546,9.546,9.546
		s9.547-4.283,9.547-9.546v-13.699c26.281,2.292,50.678,14.008,69.081,33.268c19.442,20.348,30.149,47.017,30.149,75.093V298.923z"
		/>
</g>
</svg>
