<?xml version="1.0" encoding="utf-8"?>
<!-- Generator: Adobe Illustrator 16.0.0, SVG Export Plug-In . SVG Version: 6.00 Build 0)  -->
<!DOCTYPE svg PUBLIC "-//W3C//DTD SVG 1.1//EN" "http://www.w3.org/Graphics/SVG/1.1/DTD/svg11.dtd">
<svg version="1.1" id="Layer_1" xmlns="http://www.w3.org/2000/svg" xmlns:xlink="http://www.w3.org/1999/xlink" x="0px" y="0px"
	 width="66px" height="47px" viewBox="0 0 66 47" enable-background="new 0 0 66 47" xml:space="preserve">
<g>
	<path fill="#2A3D49" d="M14.905,1.71c3.666,0,7.194,0.474,10.585,1.422c3.392,0.948,6.566,2.291,9.523,4.027
		c2.959,1.735,5.65,3.817,8.079,6.244c2.427,2.428,4.508,5.121,6.245,8.078c1.735,2.958,3.077,6.132,4.026,9.523
		c0.948,3.393,1.422,6.921,1.422,10.587c0,1.156-0.41,2.146-1.229,2.966c-0.82,0.818-1.81,1.229-2.966,1.229
		c-1.157,0-2.147-0.41-2.966-1.229c-0.82-0.82-1.23-1.81-1.23-2.966c0-2.895-0.378-5.683-1.134-8.368
		c-0.756-2.685-1.816-5.191-3.183-7.523c-1.366-2.33-3.006-4.452-4.918-6.365c-1.913-1.913-4.035-3.553-6.366-4.919
		c-2.33-1.366-4.838-2.427-7.523-3.183c-2.684-0.755-5.473-1.133-8.367-1.133c-1.157,0-2.146-0.41-2.966-1.229
		c-0.819-0.82-1.229-1.809-1.229-2.966c0-1.157,0.41-2.146,1.229-2.965C12.759,2.12,13.748,1.71,14.905,1.71L14.905,1.71z
		 M14.905,17.575c3.312,0,6.422,0.635,9.332,1.905c2.91,1.27,5.449,2.99,7.62,5.16c2.17,2.171,3.89,4.711,5.16,7.619
		c1.271,2.91,1.904,6.02,1.904,9.331c0,1.158-0.409,2.146-1.229,2.966c-0.82,0.82-1.809,1.23-2.966,1.23s-2.146-0.41-2.966-1.23
		c-0.82-0.818-1.229-1.808-1.229-2.966c0-2.153-0.41-4.179-1.229-6.075c-0.82-1.896-1.938-3.553-3.352-4.967
		c-1.415-1.414-3.071-2.532-4.967-3.353c-1.897-0.819-3.922-1.229-6.077-1.229c-1.157,0-2.146-0.41-2.965-1.23
		c-0.82-0.82-1.229-1.808-1.229-2.965c0-1.157,0.41-2.146,1.229-2.966C12.759,17.985,13.748,17.575,14.905,17.575L14.905,17.575z
		 M22.621,39.613c0,0.836-0.153,1.607-0.458,2.315c-0.305,0.707-0.723,1.325-1.254,1.856c-0.53,0.53-1.157,0.948-1.88,1.254
		c-0.724,0.305-1.487,0.457-2.291,0.457c-0.836,0-1.607-0.152-2.315-0.457c-0.707-0.306-1.326-0.724-1.856-1.254
		c-0.53-0.531-0.948-1.149-1.254-1.856c-0.305-0.708-0.458-1.479-0.458-2.315c0-0.803,0.153-1.567,0.458-2.29
		c0.306-0.724,0.724-1.351,1.254-1.88c0.53-0.532,1.149-0.949,1.856-1.256c0.708-0.305,1.479-0.457,2.315-0.457
		c0.803,0,1.567,0.152,2.291,0.457c0.724,0.307,1.35,0.724,1.88,1.256c0.531,0.529,0.949,1.156,1.254,1.88
		C22.468,38.046,22.621,38.811,22.621,39.613L22.621,39.613z M22.621,39.613"/>
</g>
</svg>
