<?xml version="1.0" encoding="utf-8"?>
<!-- Generator: Adobe Illustrator 16.0.0, SVG Export Plug-In . SVG Version: 6.00 Build 0)  -->
<!DOCTYPE svg PUBLIC "-//W3C//DTD SVG 1.1//EN" "http://www.w3.org/Graphics/SVG/1.1/DTD/svg11.dtd">
<svg version="1.1" id="Layer_1" xmlns="http://www.w3.org/2000/svg" xmlns:xlink="http://www.w3.org/1999/xlink" x="0px" y="0px"
	 width="360px" height="360px" viewBox="0 0 360 360" enable-background="new 0 0 360 360" xml:space="preserve">
<g>
	<path fill="#657D8D" d="M207.523,51.207c-23.061,0-45.638,6.127-65.394,17.76c-17.622,10.393-32.56,24.849-43.503,42.058H49.339
		c-20.032,0-36.277,16.244-36.277,36.277v65.737c0,20.031,16.245,36.275,36.277,36.275h49.287
		c10.944,17.209,25.881,31.666,43.503,42.062c19.756,11.633,42.333,17.76,65.394,17.76c5.162,0,9.293-4.131,9.293-9.294V60.5
		C216.816,55.405,212.686,51.207,207.523,51.207L207.523,51.207z M94.562,230.73H49.339c-9.774,0-17.689-7.916-17.689-17.692
		v-65.737c0-9.775,7.915-17.69,17.689-17.69h45.224V230.73z M198.229,290.206c-34.898-2.962-66.701-22.58-85.08-52.73V122.933
		c18.379-30.149,50.182-49.768,85.08-52.729V290.206z M198.229,290.206"/>
	<g>
		<defs>
			<rect id="SVGID_1_" x="13.062" y="51" width="333.715" height="258.96"/>
		</defs>
		<clipPath id="SVGID_2_">
			<use xlink:href="#SVGID_1_"  overflow="visible"/>
		</clipPath>
		<path clip-path="url(#SVGID_2_)" fill="#657D8D" d="M253.231,108.201c-4.202-2.957-9.983-1.925-12.944,2.343
			c-2.958,4.198-1.926,9.979,2.343,12.94c18.584,12.94,29.669,34.213,29.669,56.789s-11.085,43.85-29.669,56.79
			c-4.198,2.96-5.233,8.742-2.343,12.94c1.792,2.614,4.683,3.992,7.644,3.992c1.858,0,3.717-0.551,5.301-1.65
			c23.541-16.452,37.65-43.369,37.65-72.005C290.882,151.708,276.772,124.586,253.231,108.201L253.231,108.201z M253.231,108.201"/>
		<path clip-path="url(#SVGID_2_)" fill="#657D8D" d="M289.161,69.723c-4.198-2.961-9.979-1.926-12.94,2.339
			c-2.961,4.202-1.926,9.983,2.34,12.944c31.185,21.75,49.768,57.341,49.768,95.2c0,37.86-18.583,73.514-49.768,95.197
			c-4.198,2.961-5.23,8.742-2.34,12.943c1.792,2.615,4.683,3.989,7.641,3.989c1.858,0,3.717-0.547,5.3-1.65
			c36.139-25.194,57.754-66.495,57.754-110.479C346.915,136.22,325.371,94.918,289.161,69.723L289.161,69.723z M289.161,69.723"/>
	</g>
</g>
</svg>
