<?xml version="1.0" encoding="utf-8"?>
<!-- Generator: Adobe Illustrator 16.0.0, SVG Export Plug-In . SVG Version: 6.00 Build 0)  -->
<!DOCTYPE svg PUBLIC "-//W3C//DTD SVG 1.1//EN" "http://www.w3.org/Graphics/SVG/1.1/DTD/svg11.dtd">
<svg version="1.1" id="Layer_1" xmlns="http://www.w3.org/2000/svg" xmlns:xlink="http://www.w3.org/1999/xlink" x="0px" y="0px"
	 width="75px" height="75px" viewBox="0 0 75 75" enable-background="new 0 0 75 75" xml:space="preserve">
<g id="Layer_19">
	<g>
		<path fill="#FEFEFE" d="M37.724,75.149c-12.325,0-24.649-0.005-36.975,0.014c-0.514,0.001-0.615-0.101-0.614-0.614
			c0.016-24.6,0.016-49.2,0-73.799c0-0.513,0.101-0.615,0.614-0.614c24.65,0.016,49.3,0.016,73.949,0
			c0.514,0,0.615,0.101,0.614,0.614c-0.016,24.6-0.016,49.2,0,73.799c0.001,0.514-0.1,0.615-0.614,0.614
			C62.374,75.145,50.049,75.149,37.724,75.149z M32.245,68.362c0.271-0.067,0.405-0.293,0.578-0.461
			c3.529-3.433,7.059-6.864,10.575-10.311c0.353-0.346,0.727-0.567,1.205-0.687c2.959-0.736,5.694-1.981,8.232-3.666
			c12.258-8.133,15.238-24.464,6.497-36.086C54.413,10.611,47.72,7.188,39.598,6.475c-0.584-0.051-0.58,0.228-0.579,0.647
			c0.008,4.424,0.016,8.848-0.009,13.271c-0.003,0.563,0.197,0.696,0.712,0.775c6.629,1.022,10.93,7.576,9.148,13.909
			c-1.627,5.784-7.88,9.329-13.887,7.874c-5.974-1.448-9.597-6.834-8.604-12.83c0.08-0.481-0.101-0.601-0.494-0.701
			c-4.448-1.132-8.896-2.265-13.335-3.426c-0.536-0.14-0.689,0.021-0.798,0.509c-0.845,3.791-0.966,7.597,0.048,11.355
			c2.756,10.212,9.484,16.419,19.585,19.131c0.581,0.156,0.793,0.344,0.785,0.979c-0.04,3.198-0.021,6.397-0.013,9.597
			C32.158,67.828,32.066,68.109,32.245,68.362z M36.437,13.787c0-2.175-0.035-4.351,0.019-6.524
			c0.019-0.765-0.285-0.858-0.919-0.792c-4.022,0.415-7.828,1.516-11.337,3.557c-5.132,2.985-8.923,7.162-11.24,12.653
			c-0.236,0.559-0.186,0.786,0.476,0.95c4.428,1.095,8.848,2.23,13.262,3.382c0.522,0.137,0.765,0.054,1.06-0.425
			c1.846-2.993,4.539-4.79,7.991-5.409c0.541-0.097,0.707-0.26,0.701-0.792C36.423,18.186,36.437,15.986,36.437,13.787z"/>
		<path fill-rule="evenodd" clip-rule="evenodd" fill="#FCB901" d="M32.245,68.362c-0.179-0.253-0.087-0.534-0.088-0.796
			c-0.007-3.199-0.026-6.398,0.013-9.597c0.008-0.636-0.204-0.823-0.785-0.979C21.284,54.278,14.556,48.071,11.8,37.859
			c-1.014-3.758-0.893-7.564-0.048-11.355c0.108-0.487,0.262-0.649,0.798-0.509c4.44,1.161,8.888,2.293,13.335,3.426
			c0.393,0.1,0.574,0.219,0.494,0.701c-0.993,5.996,2.63,11.382,8.604,12.83c6.007,1.455,12.26-2.09,13.887-7.874
			c1.781-6.333-2.52-12.887-9.148-13.909c-0.515-0.079-0.715-0.212-0.712-0.775c0.024-4.423,0.017-8.847,0.009-13.271
			c-0.001-0.419-0.005-0.699,0.579-0.647c8.122,0.713,14.815,4.136,19.734,10.677c8.741,11.622,5.761,27.954-6.497,36.086
			c-2.538,1.685-5.273,2.93-8.232,3.666c-0.479,0.119-0.853,0.341-1.205,0.687c-3.516,3.446-7.045,6.878-10.575,10.311
			C32.65,68.069,32.517,68.295,32.245,68.362z"/>
		<path fill-rule="evenodd" clip-rule="evenodd" fill="#FBDC68" d="M36.437,13.787c0,2.2-0.014,4.399,0.011,6.599
			c0.006,0.533-0.16,0.695-0.701,0.792c-3.452,0.619-6.145,2.416-7.991,5.409c-0.295,0.479-0.538,0.562-1.06,0.425
			c-4.414-1.151-8.833-2.287-13.262-3.382c-0.662-0.164-0.711-0.391-0.476-0.95c2.317-5.491,6.108-9.667,11.24-12.653
			c3.509-2.042,7.314-3.142,11.337-3.557c0.634-0.066,0.938,0.027,0.919,0.792C36.402,9.436,36.437,11.612,36.437,13.787z"/>
	</g>
</g>
</svg>
