<?xml version="1.0" encoding="utf-8"?>
<!-- Generator: Adobe Illustrator 16.0.0, SVG Export Plug-In . SVG Version: 6.00 Build 0)  -->
<!DOCTYPE svg PUBLIC "-//W3C//DTD SVG 1.1//EN" "http://www.w3.org/Graphics/SVG/1.1/DTD/svg11.dtd">
<svg version="1.1" id="Layer_1" xmlns="http://www.w3.org/2000/svg" xmlns:xlink="http://www.w3.org/1999/xlink" x="0px" y="0px"
	 width="75px" height="75px" viewBox="0 0 75 75" enable-background="new 0 0 75 75" xml:space="preserve">
<g>
	<path fill="#FEA502" d="M38.109,77.109c-12.391,0-24.781-0.031-37.172,0.04c-1.524,0.009-1.871-0.345-1.867-1.868
		c0.056-24.782,0.056-49.562,0-74.344C-0.933-0.586-0.586-0.933,0.938-0.93c24.781,0.055,49.562,0.055,74.344,0
		c1.523-0.003,1.871,0.344,1.868,1.867c-0.056,24.781-0.056,49.562,0,74.344c0.003,1.523-0.344,1.877-1.868,1.868
		C62.891,77.078,50.499,77.109,38.109,77.109z M33.698,71.08c6.39,0,12.781-0.063,19.169,0.041c1.857,0.03,2.438-0.494,2.412-2.386
		c-0.103-7.403-0.065-14.808-0.023-22.213c0.01-1.572,0.002-2.614-2.161-2.657c-2.386-0.049-2.303,1.203-2.291,2.838
		c0.036,5.781-0.087,11.565,0.063,17.344c0.059,2.196-0.688,2.701-2.762,2.681c-9.635-0.099-19.272-0.097-28.907,0
		c-2.007,0.019-2.593-0.585-2.553-2.573c0.119-5.982-0.014-11.969,0.076-17.952c0.025-1.694-0.456-2.309-2.203-2.303
		c-1.746,0.006-2.517,0.358-2.485,2.354c0.118,7.402,0.128,14.809-0.003,22.211c-0.039,2.221,0.768,2.694,2.802,2.657
		C21.119,71.009,27.41,71.081,33.698,71.08z M33.277,56.585c0,0.02,0,0.039,0,0.06c-3.651,0-7.308,0.112-10.953-0.041
		c-2.311-0.098-2.1,1.317-2.014,2.745c0.081,1.359-0.674,3.118,1.982,3.069c7.301-0.128,14.606-0.144,21.907-0.034
		c2.375,0.037,2.281-1.282,2.268-2.904c-0.012-1.591,0.173-3.035-2.238-2.935C40.584,56.697,36.929,56.585,33.277,56.585z
		 M46.684,51.996c0.803-2.195-0.507-2.574-2.256-2.728c-7.064-0.621-14.139-1.172-21.18-1.998c-3.068-0.359-2.154,1.825-2.555,3.237
		c-0.482,1.692,0.186,2.281,1.931,2.421c6.968,0.563,13.939,1.139,20.874,1.994C46.121,55.247,47.139,54.618,46.684,51.996z
		 M48.373,43.736c0.52-1.577-0.646-1.74-1.782-2.041c-6.954-1.84-13.933-3.599-20.829-5.639c-2.258-0.667-2.552,0.342-2.94,2.012
		c-0.372,1.597-1.165,2.927,1.443,3.544c6.603,1.562,13.136,3.428,19.694,5.177C47.396,47.704,47.863,47.393,48.373,43.736z
		 M63.759,29.434c-1.344-7.758-2.587-15.357-4.012-22.923c-0.495-2.628-2.424-0.761-3.69-0.786c-1.131-0.022-2.17,0.099-1.834,1.898
		c1.394,7.468,2.699,14.955,3.913,22.455c0.331,2.043,1.636,1.488,2.692,1.229C61.988,31.024,63.973,31.631,63.759,29.434z
		 M51.67,35.741c0.014-0.469-1.088-0.643-1.788-1.062c-6.078-3.637-12.255-7.109-18.25-10.876c-2.139-1.344-2.629-0.233-3.575,1.259
		c-1.037,1.634-1.294,2.619,0.729,3.758c5.995,3.373,11.872,6.956,17.796,10.454C48.875,40.625,51.438,39.203,51.67,35.741z
		 M57.24,31.755c-0.239-0.391-0.435-0.744-0.661-1.076c-4.271-6.284-8.563-12.554-12.812-18.853
		c-1.598-2.369-2.496,0.051-3.611,0.521c-1.295,0.546-2.149,1.238-0.945,2.938c4.275,6.034,8.372,12.193,12.574,18.278
		c0.437,0.634,0.737,1.965,1.996,1.021C54.963,33.698,56.502,33.224,57.24,31.755z"/>
	<path fill-rule="evenodd" clip-rule="evenodd" fill="#FEFBF5" d="M33.698,71.08c-6.288,0.001-12.579-0.071-18.865,0.042
		c-2.035,0.037-2.841-0.437-2.802-2.657c0.131-7.402,0.122-14.809,0.003-22.211c-0.032-1.996,0.739-2.349,2.485-2.354
		c1.748-0.006,2.228,0.608,2.203,2.303c-0.09,5.983,0.042,11.97-0.076,17.952c-0.04,1.988,0.546,2.592,2.553,2.573
		c9.635-0.097,19.272-0.099,28.907,0c2.074,0.021,2.82-0.484,2.762-2.681c-0.15-5.778-0.027-11.562-0.063-17.344
		c-0.012-1.635-0.095-2.887,2.291-2.838c2.163,0.043,2.171,1.085,2.161,2.657c-0.042,7.405-0.079,14.81,0.023,22.213
		c0.025,1.892-0.555,2.416-2.412,2.386C46.479,71.017,40.088,71.08,33.698,71.08z"/>
	<path fill-rule="evenodd" clip-rule="evenodd" fill="#FEF6E7" d="M33.277,56.585c3.651,0,7.307,0.112,10.952-0.04
		c2.411-0.101,2.227,1.344,2.238,2.935c0.014,1.622,0.107,2.941-2.268,2.904c-7.301-0.109-14.606-0.094-21.907,0.034
		c-2.656,0.049-1.901-1.71-1.982-3.069c-0.085-1.428-0.296-2.843,2.014-2.745c3.645,0.153,7.301,0.041,10.953,0.041
		C33.277,56.624,33.277,56.604,33.277,56.585z"/>
	<path fill-rule="evenodd" clip-rule="evenodd" fill="#FEFBF5" d="M46.684,51.996c0.455,2.622-0.562,3.251-3.187,2.927
		c-6.935-0.855-13.906-1.431-20.874-1.994c-1.745-0.14-2.413-0.729-1.931-2.421c0.401-1.412-0.513-3.597,2.555-3.237
		c7.042,0.826,14.116,1.377,21.18,1.998C46.177,49.422,47.486,49.801,46.684,51.996z"/>
	<path fill-rule="evenodd" clip-rule="evenodd" fill="#FEFBF5" d="M48.373,43.736c-0.51,3.656-0.977,3.968-4.413,3.053
		c-6.559-1.749-13.091-3.615-19.694-5.177c-2.608-0.617-1.815-1.947-1.443-3.544c0.388-1.67,0.682-2.68,2.94-2.012
		c6.896,2.041,13.875,3.799,20.829,5.639C47.728,41.996,48.893,42.159,48.373,43.736z"/>
	<path fill-rule="evenodd" clip-rule="evenodd" fill="#FEFBF5" d="M63.759,29.434c0.214,2.197-1.771,1.59-2.931,1.874
		c-1.057,0.259-2.361,0.813-2.692-1.229c-1.214-7.5-2.52-14.986-3.913-22.455c-0.336-1.799,0.703-1.92,1.834-1.898
		c1.267,0.025,3.195-1.843,3.69,0.786C61.172,14.077,62.415,21.676,63.759,29.434z"/>
	<path fill-rule="evenodd" clip-rule="evenodd" fill="#FEFBF5" d="M51.67,35.741c-0.231,3.462-2.795,4.884-5.087,3.533
		c-5.924-3.498-11.801-7.081-17.796-10.454c-2.024-1.139-1.766-2.124-0.729-3.758c0.946-1.493,1.436-2.604,3.575-1.259
		c5.995,3.767,12.171,7.24,18.25,10.876C50.582,35.098,51.684,35.272,51.67,35.741z"/>
	<path fill-rule="evenodd" clip-rule="evenodd" fill="#FEFBF5" d="M57.24,31.755c-0.738,1.468-2.277,1.942-3.459,2.829
		c-1.259,0.945-1.56-0.386-1.996-1.021c-4.202-6.085-8.299-12.245-12.574-18.278c-1.204-1.701-0.35-2.393,0.945-2.938
		c1.115-0.469,2.014-2.889,3.611-0.521c4.248,6.298,8.541,12.569,12.812,18.853C56.806,31.011,57.001,31.365,57.24,31.755z"/>
</g>
</svg>
